<?xml version="1.0" standalone="no"?>
<!DOCTYPE svg PUBLIC "-//W3C//DTD SVG 20010904//EN"
 "http://www.w3.org/TR/2001/REC-SVG-20010904/DTD/svg10.dtd">
<svg version="1.0" xmlns="http://www.w3.org/2000/svg"
 width="553.000000pt" height="673.000000pt" viewBox="0 0 553.000000 673.000000"
 preserveAspectRatio="xMidYMid meet">

<g transform="translate(0.000000,673.000000) scale(0.100000,-0.100000)"
fill="#000000" stroke="none">
<path d="M2655 6659 c-86 -12 -238 -63 -320 -108 l-70 -38 3 -89 c1 -48 6 -91
10 -95 4 -4 59 -10 122 -13 l115 -7 -27 28 c-36 37 -35 43 5 33 48 -12 69 -21
102 -45 28 -21 43 -23 265 -28 129 -4 253 -10 274 -13 l39 -7 -7 39 c-14 73
-62 158 -125 218 -107 101 -242 145 -386 125z"/>
<path d="M2180 5991 c0 -13 27 -27 68 -35 19 -3 48 -16 65 -28 31 -22 30 -17
-6 35 -17 25 -24 28 -53 22 -19 -3 -43 -1 -54 5 -13 7 -20 7 -20 1z"/>
<path d="M2662 5880 c-43 -26 -48 -44 -28 -87 26 -55 14 -84 -65 -154 -66 -58
-77 -78 -63 -113 11 -28 34 -18 102 44 52 46 74 60 98 60 40 0 55 18 61 73 7
55 -20 91 -68 92 -40 0 -48 18 -14 33 40 18 69 14 94 -12 46 -49 46 -136 2
-212 -17 -28 -19 -39 -10 -45 33 -20 74 32 89 112 24 123 -32 229 -121 229
-26 0 -57 -8 -77 -20z m-12 -237 c0 -10 -62 -73 -72 -73 -16 0 -7 25 19 52 25
26 53 37 53 21z"/>
<path d="M1500 5319 c-54 -16 -95 -53 -124 -111 -43 -87 -31 -193 23 -204 89
-18 146 -80 155 -169 13 -115 16 -125 36 -125 13 0 20 7 20 18 0 29 38 62 70
62 62 0 95 -106 50 -163 l-20 -26 22 -75 22 -76 36 6 c19 4 38 9 41 13 4 3 23
74 44 158 34 141 39 152 64 161 57 20 118 92 77 92 -29 0 -74 51 -95 107 -45
119 -92 203 -138 243 -85 75 -204 112 -283 89z"/>
<path d="M3395 5127 c-141 -37 -224 -117 -266 -255 -8 -26 -24 -51 -41 -64
-16 -11 -44 -42 -63 -70 l-33 -50 -15 28 c-21 41 -45 60 -129 103 -81 41 -129
98 -151 178 -6 24 -14 43 -18 43 -17 0 -194 -198 -240 -267 -57 -88 -307 -529
-368 -650 -29 -57 -27 -63 17 -63 126 0 285 -166 327 -341 19 -81 19 -265 1
-344 -13 -53 -13 -62 0 -77 11 -11 12 -18 4 -23 -6 -4 -52 20 -103 53 -104 67
-174 105 -187 100 -5 -2 -1 -21 9 -44 12 -27 29 -45 50 -53 36 -15 35 -12 20
-62 -11 -36 -13 -37 -33 -24 -30 21 -33 19 -40 -25 -4 -28 -15 -46 -36 -62
-28 -20 -30 -27 -30 -83 0 -90 13 -119 66 -146 47 -25 57 -41 95 -149 11 -30
30 -75 43 -100 32 -59 73 -200 92 -320 24 -141 14 -382 -19 -511 -49 -188
-105 -296 -207 -399 -106 -106 -233 -160 -381 -160 -92 0 -81 -13 30 -36 121
-24 288 -15 394 20 98 33 143 56 235 119 l72 49 2 192 c4 525 6 603 16 635 7
19 27 51 45 70 29 30 38 54 62 151 56 234 109 344 283 597 l119 172 6 76 c4
42 18 145 33 228 14 84 31 222 37 307 l12 155 32 -87 c18 -48 38 -115 45 -148
9 -44 16 -60 28 -60 28 0 109 60 144 106 l33 43 -23 88 c-27 102 -29 141 -11
186 25 59 35 62 192 59 l142 -4 6 55 c7 66 24 101 81 166 40 45 45 56 51 118
8 74 25 117 50 127 31 12 65 6 85 -14 l20 -20 48 24 c63 32 129 104 138 151
14 74 -15 159 -83 243 -40 48 -48 51 -57 18 -8 -31 -51 -83 -77 -91 -13 -4
-46 10 -107 49 -48 30 -116 65 -152 77 -80 27 -223 34 -295 16z m-1096 -1853
c14 -12 -19 -1 -35 12 -18 14 -18 14 6 3 14 -6 27 -13 29 -15z m-10 -80 c14
-12 -19 -1 -35 12 -18 14 -18 14 6 3 14 -6 27 -13 29 -15z"/>
<path d="M1393 4873 c-7 -2 -13 -11 -13 -18 0 -10 11 -12 40 -8 25 4 46 1 55
-7 9 -8 15 -9 15 -2 0 27 -62 50 -97 35z"/>
<path d="M1662 4728 c-17 -17 -15 -43 4 -58 12 -11 18 -10 31 3 14 13 14 21 5
42 -13 28 -22 31 -40 13z"/>
<path d="M3972 4373 c-67 -4 -147 -42 -140 -65 6 -18 58 -29 80 -17 10 5 46 8
81 7 l62 -3 3 43 c2 30 -1 41 -10 40 -7 -1 -42 -3 -76 -5z"/>
<path d="M3965 4220 c-7 -12 12 -12 40 0 18 8 17 9 -7 9 -15 1 -30 -3 -33 -9z"/>
<path d="M3520 4167 c0 -3 14 -43 31 -89 30 -81 30 -85 19 -155 -17 -97 -8
-234 19 -304 26 -67 78 -130 134 -164 62 -36 236 -79 270 -66 36 14 67 67 67
116 0 36 -4 42 -30 52 -76 29 -65 160 19 219 30 22 41 36 41 56 l0 27 -42 -19
c-81 -37 -165 -18 -245 54 -68 61 -91 103 -104 189 l-11 77 -62 0 c-33 0 -71
3 -83 6 -13 4 -23 4 -23 1z"/>
<path d="M3398 4115 c-29 -63 38 -113 71 -54 13 24 13 29 -2 53 -22 33 -54 34
-69 1z"/>
<path d="M3400 3951 c0 -6 5 -13 10 -16 6 -3 10 1 10 9 0 9 -4 16 -10 16 -5 0
-10 -4 -10 -9z"/>
<path d="M1980 3590 c-8 -5 -12 -11 -10 -13 12 -11 264 -136 268 -133 11 12
-31 49 -113 99 -92 57 -117 65 -145 47z"/>
<path d="M1756 3532 c-9 -15 13 -35 58 -53 25 -9 46 -14 46 -10 0 15 -74 71
-94 71 -3 0 -7 -4 -10 -8z"/>
<path d="M1945 3406 c0 -118 1 -121 23 -124 15 -2 22 2 22 13 0 9 11 27 26 41
21 22 31 25 59 20 l34 -7 -21 59 c-20 56 -24 61 -82 89 l-61 31 0 -122z"/>
<path d="M1191 3126 c-9 -11 -10 -20 -1 -38 11 -22 10 -22 -9 2 l-20 25 -25
-24 c-30 -28 -32 -50 -12 -90 22 -42 86 -95 99 -82 32 32 75 -9 61 -57 -4 -15
-6 -31 -5 -37 11 -43 1 -69 -41 -113 -62 -63 -78 -99 -79 -174 -1 -40 -3 -54
-8 -39 -6 21 -9 17 -28 -30 -18 -44 -22 -74 -22 -167 0 -62 -3 -117 -7 -123
-3 -6 -3 -53 1 -104 5 -74 10 -93 21 -88 8 3 16 -2 20 -10 3 -9 11 -14 18 -11
7 3 19 -2 26 -11 10 -13 9 -23 -11 -60 -13 -25 -28 -46 -34 -47 -5 0 -17 -1
-25 -2 -12 -1 -17 -35 -25 -202 l-10 -201 -32 -36 -32 -37 -306 0 -306 0 -38
40 c-48 50 -85 53 -134 10 -32 -27 -40 -29 -128 -32 l-94 -3 3 -39 c5 -63 17
-76 66 -76 79 0 106 -10 120 -45 17 -41 61 -75 96 -75 55 0 110 70 110 140 l0
30 300 0 300 0 0 -32 c0 -36 36 -117 56 -125 11 -4 12 -48 7 -234 -6 -212 -5
-230 12 -249 10 -11 26 -20 37 -20 22 0 23 -9 1 -40 -23 -35 -35 -41 -61 -35
-17 4 -24 0 -32 -20 -14 -36 -14 -35 24 -35 42 0 77 27 101 79 19 44 35 45 35
3 0 -21 2 -24 10 -12 5 8 10 25 10 37 0 12 8 24 19 28 17 5 19 24 27 278 5
150 8 293 6 319 -3 49 14 75 22 36 3 -13 7 -54 9 -93 10 -189 40 -541 47 -548
4 -5 29 -9 54 -9 51 -1 52 -4 32 -53 -12 -29 -20 -35 -44 -35 -28 0 -41 -17
-42 -52 0 -12 36 -10 63 3 25 11 33 23 63 94 14 32 18 36 21 20 9 -40 23 -39
23 2 0 32 4 43 19 48 50 15 49 43 -5 480 -24 192 -33 254 -54 375 -5 30 -16
120 -24 200 -8 80 -26 197 -42 261 l-27 117 30 48 c41 68 43 79 27 212 -14
127 -31 185 -65 231 -20 28 -42 110 -40 157 0 12 10 43 22 70 44 102 31 248
-27 293 -32 25 -105 29 -123 7z m139 -496 c0 -5 -15 -20 -34 -32 -40 -26 -62
-60 -75 -114 -7 -32 -9 -34 -10 -12 -2 45 17 81 67 125 52 47 52 47 52 33z
m-152 -220 c0 -9 -3 -7 -8 5 -5 11 -8 29 -8 40 0 16 2 15 8 -5 4 -14 8 -32 8
-40z m32 -22 c-1 -49 -2 -51 -15 -34 -8 11 -15 25 -15 30 0 6 5 4 10 -4 7 -11
10 -5 10 23 0 20 2 37 5 37 3 0 5 -24 5 -52z m56 -1015 c-11 -11 -19 6 -11 24
8 17 8 17 12 0 3 -10 2 -21 -1 -24z m-927 -9 c44 -56 13 -154 -48 -154 -42 0
-66 33 -66 90 0 84 68 122 114 64z m-162 -11 c-7 -7 -159 -4 -166 3 -2 2 35 4
84 4 49 0 85 -3 82 -7z m899 -24 c-3 -17 -6 -50 -7 -73 l-1 -41 -15 35 c-12
28 -13 42 -4 72 14 46 36 52 27 7z"/>
<path d="M1240 2880 c0 -5 5 -10 10 -10 6 0 10 5 10 10 0 6 -4 10 -10 10 -5 0
-10 -4 -10 -10z"/>
<path d="M2143 2661 l-93 -34 38 -17 c21 -10 68 -47 104 -84 54 -55 71 -66 98
-66 l33 0 -6 43 c-7 52 -42 145 -65 173 l-17 20 -92 -35z"/>
<path d="M3712 2573 l0 -98 15 42 c8 23 25 52 38 65 22 21 22 23 7 55 -11 23
-23 33 -38 33 -22 0 -23 -3 -22 -97z"/>
<path d="M1853 2565 c-27 -12 -33 -20 -33 -45 0 -16 1 -30 3 -30 7 0 69 81 66
85 -2 2 -19 -3 -36 -10z"/>
<path d="M4345 2460 c-48 -35 -56 -36 -80 -10 -25 28 -53 25 -65 -6 -6 -14 -8
-29 -6 -33 3 -4 -10 -54 -29 -112 -18 -57 -31 -107 -27 -110 4 -4 26 -9 50
-13 39 -6 42 -5 42 17 0 35 10 39 46 16 33 -20 34 -20 58 -2 16 11 27 33 32
58 3 22 13 45 21 51 11 7 13 18 8 34 -6 18 -9 20 -16 9 -10 -15 -6 38 7 99 3
17 5 32 3 31 -2 0 -22 -14 -44 -29z"/>
<path d="M2901 2312 c-7 -14 -11 -115 -11 -301 0 -229 3 -282 14 -294 8 -8 41
-17 73 -21 119 -13 300 -26 369 -26 111 0 107 -11 102 287 -3 168 -8 255 -16
270 -20 37 -222 84 -423 99 -91 6 -98 5 -108 -14z m239 -66 c85 -14 178 -30
206 -36 51 -11 51 -11 58 -57 3 -25 6 -133 6 -240 l0 -195 -42 5 c-24 3 -119
10 -213 17 -93 6 -181 15 -195 18 l-25 7 -3 253 -2 252 27 0 c16 0 98 -11 183
-24z"/>
<path d="M3890 2092 c0 -17 39 -44 55 -39 21 9 19 24 -4 37 -24 12 -51 13 -51
2z"/>
<path d="M3841 2023 c3 -65 24 -93 188 -239 99 -88 167 -142 169 -134 5 15
-16 117 -30 143 -6 13 -13 15 -26 8 -13 -7 -31 4 -85 51 l-68 61 31 32 c31 32
32 33 15 59 -22 33 -25 33 -60 -4 -35 -37 -45 -37 -76 -4 -36 38 -59 49 -58
27z"/>
<path d="M4174 1985 c-11 -43 3 -165 26 -230 51 -147 155 -317 198 -323 13 -2
44 4 69 12 26 9 75 16 110 16 l63 0 0 30 c0 22 5 30 18 31 11 0 13 2 4 6 -9 3
-2 13 20 27 27 19 42 22 83 17 45 -5 50 -9 53 -32 3 -28 57 -87 69 -76 3 4 1
19 -6 34 -10 23 -10 26 0 16 20 -20 37 -15 37 11 0 17 -5 23 -15 19 -8 -3 -28
8 -46 25 -18 16 -50 39 -72 50 l-41 20 -104 -44 c-58 -24 -112 -43 -121 -44
-8 0 -36 14 -62 30 -56 35 -57 36 -57 11 0 -46 -20 -26 -40 42 -86 291 -119
370 -157 375 -17 3 -24 -3 -29 -23z"/>
<path d="M1810 1920 c0 -46 18 -60 80 -60 47 0 118 26 104 39 -9 8 -162 61
-177 61 -4 0 -7 -18 -7 -40z"/>
<path d="M4095 1900 c10 -11 20 -20 22 -20 2 0 -1 9 -7 20 -6 11 -16 20 -22
20 -6 0 -3 -9 7 -20z"/>
<path d="M734 1889 c-3 -6 0 -15 7 -20 22 -14 29 -11 29 11 0 21 -24 27 -36 9z"/>
<path d="M459 1743 c-73 -99 -82 -113 -75 -113 9 0 148 191 143 196 -2 3 -33
-35 -68 -83z"/>
<path d="M519 1773 c-65 -68 -102 -119 -97 -133 2 -6 27 21 57 60 76 101 88
107 191 100 l85 -5 -2 -77 c-3 -76 -2 -78 21 -78 24 0 24 1 19 76 l-6 77 84
-7 c101 -8 124 -26 113 -85 -4 -20 -11 -37 -15 -39 -21 -8 -6 -20 31 -24 34
-3 40 -1 40 15 0 28 -49 126 -68 136 -9 5 -78 14 -152 20 -74 6 -160 14 -190
17 l-56 5 -55 -58z"/>
<path d="M3884 1793 c4 -21 9 -45 11 -53 3 -9 66 -69 140 -134 l135 -120 -22
-24 c-13 -13 -45 -42 -71 -64 l-48 -41 -29 28 c-17 16 -32 27 -34 24 -6 -5 24
-152 32 -161 12 -12 176 141 183 170 4 15 7 53 8 84 l1 57 -149 135 c-82 75
-152 136 -156 136 -4 0 -4 -17 -1 -37z"/>
<path d="M603 1783 c9 -2 17 -11 17 -19 0 -8 5 -12 10 -9 6 4 10 -6 10 -21 0
-33 15 -22 25 17 5 22 2 27 -17 33 -13 3 -32 5 -43 5 -17 -1 -17 -2 -2 -6z"/>
<path d="M684 1735 c-4 -8 -4 -25 -1 -37 3 -12 2 -30 -4 -40 -8 -16 -6 -18 21
-18 30 0 30 0 30 55 0 49 -2 55 -20 55 -11 0 -23 -7 -26 -15z"/>
<path d="M212 1628 c-13 -35 -10 -43 13 -35 9 4 15 19 15 37 0 39 -12 38 -28
-2z"/>
<path d="M3920 1615 c0 -2 5 -26 10 -53 9 -39 20 -56 56 -87 l46 -38 24 24 24
24 -74 68 c-69 62 -86 74 -86 62z"/>
<path d="M30 1521 c0 -6 9 -11 19 -11 36 0 51 -12 51 -40 0 -29 -15 -40 -56
-40 -13 0 -24 -5 -24 -11 0 -11 71 -6 92 7 10 6 11 81 0 88 -19 12 -82 18 -82
7z"/>
<path d="M2930 1430 l0 -40 45 0 c29 0 45 4 45 13 0 9 25 11 100 9 133 -5 133
14 1 23 -70 5 -101 12 -105 21 -3 9 -21 14 -46 14 l-40 0 0 -40z"/>
<path d="M4337 1283 c-72 -63 -90 -86 -107 -130 -22 -58 -24 -74 -12 -70 4 1
28 -15 53 -35 53 -44 60 -45 83 -19 17 18 16 21 -29 62 l-46 42 23 25 c13 13
44 42 70 64 l48 40 142 -128 c79 -70 160 -143 180 -162 l37 -35 20 34 c12 19
21 43 21 54 0 16 -2 17 -10 5 -10 -17 5 -28 -192 148 -76 68 -138 127 -138
132 0 4 7 13 15 20 25 21 17 30 -29 30 -40 0 -50 -6 -129 -77z"/>
<path d="M4568 1314 c-4 -3 10 -21 30 -39 46 -41 53 -38 17 9 -27 36 -36 41
-47 30z"/>
<path d="M4089 1235 l-76 -67 9 -39 10 -38 64 57 c45 40 66 66 70 89 13 68 3
68 -77 -2z"/>
<path d="M4391 1157 l-22 -24 47 -43 47 -43 -46 -40 c-26 -21 -47 -43 -47 -47
0 -4 12 -15 26 -25 25 -16 27 -16 58 12 64 60 58 60 130 -8 53 -49 64 -64 55
-75 -9 -11 -8 -14 1 -14 18 0 91 43 88 51 -3 8 -305 279 -311 279 -2 0 -13
-11 -26 -23z"/>
<path d="M4115 1085 c-39 -33 -39 -34 -21 -54 24 -26 38 -26 61 -1 14 15 15
26 9 54 l-9 34 -40 -33z"/>
<path d="M4180 969 c-52 -45 -60 -47 -85 -19 -28 31 -29 17 -1 -38 30 -58 70
-91 123 -99 l38 -5 -39 33 -39 33 49 43 49 43 -25 24 -25 25 -45 -40z"/>
<path d="M4291 896 l-22 -23 42 -37 c24 -20 46 -36 51 -36 4 0 8 -51 8 -114 0
-110 1 -114 25 -130 13 -9 27 -16 30 -16 3 0 5 61 5 135 l0 135 33 0 c21 0 43
10 65 30 38 36 39 43 8 63 -23 16 -26 15 -70 -25 l-47 -40 -49 41 c-27 22 -50
41 -53 41 -2 0 -14 -11 -26 -24z"/>
<path d="M4335 130 l-25 -50 30 0 c29 0 30 1 30 50 0 28 -2 50 -5 50 -2 0 -16
-22 -30 -50z"/>
<path d="M4430 130 c0 -49 1 -50 30 -50 17 0 30 3 30 6 0 8 -51 94 -56 94 -2
0 -4 -22 -4 -50z"/>
<path d="M4980 150 c20 -13 53 -13 45 0 -3 6 -18 10 -33 10 -21 0 -24 -2 -12
-10z"/>
</g>
</svg>
